<svg version="1.1" xmlns="http://www.w3.org/2000/svg" viewBox="-2395.958070226903 -7744.8943310687255 13551.730196398252 13742.619892882934"><desc>Created with Snap</desc><defs></defs><g><rect x="-2395.958070226903" y="-7744.8943310687255" width="13551.730196398252" height="13742.619892882934" fill="#3c787e" style=""></rect><g transform="matrix(33.2667,0,0,33.2667,-2273.4356,-7526.927)">
<g id="gSkw7p3d242bc">
	<g>
		<g>
			<path d="M394.35947,201.70563c-1.02484,40.03262-14.36957,79.1557-38.30353,111.29541
				c-22.98865,30.87024-55.09421,54.61053-91.40369,67.40912c-38.09433,13.4277-80.22023,14.55121-119.00087,3.27557
				c-37.12295-10.79367-70.57287-32.86734-95.24805-62.61133C25.38264,290.91394,9.88069,253.392,6.43797,214.34755
				c-3.55445-40.31158,7.97381-81.86205,29.65278-115.82537c20.75089-32.50934,51.17118-58.51607,86.54323-73.89827
				C159.49695,8.59337,201.11905,4.49347,240.4381,12.7976c38.12755,8.05249,73.35225,27.80426,100.24336,55.98933
				c26.89423,28.18832,44.95993,64.29681,51.21994,102.76215c1.63016,10.01682,2.66824,20.29828,2.45099,30.45525
				c-0.02887,1.35051-0.02158,2.70317-0.01062,4.05388c0.00223,0.2735,0.01791,2.12119,0.04053,1.06296
				c0.42706-19.9673-1.16046-39.76802-6.2027-59.1438c-5.04739-19.39552-13.13757-37.97497-23.87042-54.89912
				c-21.23846-33.48996-52.69785-60.1273-89.29248-75.43089C236.89044,1.70323,193.83626-1.60377,153.70093,8.22285
				c-38.68525,9.47159-73.96521,31.07151-100.14757,61.06426C26.99277,99.71315,10.40321,138.17885,6.57031,178.38963
				c-3.79564,39.8199,2.91581,80.28514,21.77678,115.73189c18.54498,34.85291,47.74068,63.68491,82.8444,81.75653
				c36.80142,18.94559,79.42824,25.57199,120.27161,18.93204c39.36627-6.39981,76.25104-25.18701,104.71246-53.1062
				c28.71466-28.16757,48.28406-65.08585,55.27084-104.71338c1.72244-9.76938,2.67499-19.65547,2.9288-29.57066
				C394.42081,205.6396,394.32358,203.10771,394.35947,201.70563z" fill="#ffffff" style=""></path>
		</g>
		<g>
			<path d="M384.16437,200.95979c-0.96948,37.67242-13.51837,74.48354-36.03699,104.73305
				c-21.60678,29.02463-51.78247,51.36957-85.91025,63.42532c-35.70105,12.61154-75.16084,13.75424-111.55208,3.31155
				c-35.07212-10.06412-66.70206-30.8139-90.04433-58.84158c-23.57951-28.31256-38.23566-63.55717-41.5681-100.25949
				c-3.44505-37.94264,7.43247-77.10228,27.82195-109.0798c19.50157-30.58497,48.08769-55.05418,81.33714-69.56021
				c34.64224-15.11367,73.79033-19.02391,110.77145-11.27026c35.87495,7.52172,69.03416,26.02512,94.38576,52.48471
				c25.34052,26.44804,42.41953,60.36095,48.39987,96.51042c1.56839,9.48041,2.5929,19.22691,2.38849,28.84497
				c-0.02872,1.35051-0.02161,2.70317-0.01062,4.05388c0.0022,0.2735,0.01804,2.1212,0.04053,1.06296
				c0.3988-18.7643-1.03699-37.36839-5.73373-55.58963c-4.71414-18.28885-12.30157-35.81488-22.38492-51.78335
				C336.125,67.41871,306.52921,42.26576,272.0787,27.80338c-35.89688-15.06956-76.44377-18.24041-114.26489-9.02209
				c-36.45747,8.88595-69.70293,29.21078-94.38911,57.45163C38.38953,104.87299,22.7417,141.1198,19.13585,178.99318
				c-3.56545,37.44904,2.62349,75.50336,20.28055,108.89131c17.38305,32.86981,44.8184,60.08994,77.84254,77.18311
				c34.63775,17.92841,74.77824,24.23904,113.27341,18.05304c37.21521-5.98032,72.10785-23.73868,98.97885-50.15134
				c26.93942-26.47995,45.29636-61.12494,51.8902-98.33336c1.6369-9.23688,2.53745-18.58603,2.77872-27.96193
				C384.22592,204.89378,384.1283,202.36186,384.16437,200.95979z" fill="#ffffff" style=""></path>
		</g>
		<g>
			<path d="M378.12955,191.33397c-0.90213,34.82123-12.46313,68.84239-33.23041,96.83885
				c-20.05997,27.04294-48.12695,47.84525-79.88693,59.05234c-32.96756,11.63321-69.41772,12.71161-103.03377,3.12222
				c-32.53439-9.28085-61.88795-28.46027-83.57378-54.41476c-21.90107-26.21207-35.53071-58.8539-38.68074-92.87173
				c-3.24719-35.06709,6.89833-71.32854,25.72519-100.88348c18.06519-28.35925,44.55944-51.06163,75.37902-64.51524
				c32.12216-14.02223,68.38997-17.64727,102.68657-10.47926c33.12975,6.92413,63.7787,23.98623,87.24452,48.35861
				c23.54791,24.45763,39.4556,55.85356,45.08145,89.34676c1.47507,8.78174,2.46973,17.83081,2.28183,26.74438
				c-0.02847,1.35052-0.02161,2.70316-0.01065,4.05388c0.00223,0.27348,0.01825,2.1212,0.04056,1.06296
				c0.36649-17.38512-0.90256-34.61259-5.20755-51.50851c-4.30206-16.88425-11.25226-33.07607-20.49515-47.84441
				c-18.41162-29.41833-45.83148-52.87283-77.80072-66.39907c-33.30731-14.09239-70.98164-17.10499-106.12466-8.58576
				c-33.88019,8.2131-64.7917,27.08252-87.71803,53.32784c-23.16263,26.51585-37.65555,60.05003-41.01781,95.10304
				c-3.32995,34.71625,2.26603,70.01709,18.54348,101.02734c16.05161,30.57996,41.47656,55.92804,72.12071,71.86111
				c32.03235,16.65488,69.18037,22.58563,104.82953,16.94745c34.60011-5.47226,67.04689-21.9054,92.05138-46.42136
				c25.05826-24.56866,42.12735-56.76178,48.24323-91.32921c1.5127-8.54979,2.34369-17.20183,2.56851-25.87978
				C378.19144,195.26797,378.09323,192.73601,378.12955,191.33397z" fill="#ffffff" style=""></path>
		</g>
	</g>
</g>


<desc>Created with Snap</desc><defs></defs></g><g><g transform="matrix(1.024,0,0,-1.024,0,0)"><path d="M555 275Q555 209 536 151Q517 94 483 55Q427 -10 322 -10Q271 -10 231 13Q191 37 160 101L130 0L83 0L83 720L6 739L6 780L180 780L180 482Q210 520 247 535Q284 550 330 550Q381 550 422 535Q464 520 490 487Q521 449 538 394Q555 339 555 275ZM180 274Q180 151 215 95Q231 69 254 55Q277 42 315 42Q383 42 416 89Q434 115 442 161Q450 207 450 267Q450 387 415 445Q398 471 375 484Q352 498 314 498Q279 498 254 486Q229 475 215 452Q198 424 189 379Q180 335 180 274ZM1098 264L749 264Q749 191 769 143Q789 96 825 76Q862 57 906 57Q954 57 992 76Q1031 96 1062 130L1094 106Q1076 82 1055 61Q1035 40 1009 24Q983 8 951 -1Q919 -10 880 -10Q811 -10 758 19Q705 49 677 106Q662 137 655 174Q648 212 648 256Q648 397 712 473Q776 550 888 550Q991 550 1046 486Q1101 423 1101 311Q1101 301 1100 292Q1100 284 1098 264ZM882 496Q762 496 750 313L1000 313L1000 346Q1000 418 969 457Q939 496 882 496ZM1258 60L1258 480L1181 499L1181 540L1325 540L1347 440L1351 440Q1381 491 1431 520Q1482 550 1541 550Q1581 550 1613 536Q1645 522 1664 496Q1684 468 1692 417Q1701 367 1701 281L1701 60L1778 41L1778 0L1537 0L1537 41L1604 60L1604 283Q1604 347 1600 379Q1597 412 1588 430Q1563 479 1500 479Q1472 479 1446 469Q1420 459 1400 442Q1378 422 1367 395Q1357 369 1355 327L1355 60L1422 41L1422 0L1181 0L1181 41L1258 60ZM2001 540L2001 85Q2001 11 1996 -32Q1991 -74 1979 -101Q1960 -144 1924 -167Q1888 -190 1840 -190Q1786 -190 1751 -164Q1717 -137 1717 -95Q1717 -69 1731 -54Q1746 -38 1770 -38Q1819 -38 1819 -93Q1819 -122 1803 -138Q1805 -145 1815 -149Q1826 -153 1842 -153Q1877 -153 1890 -125Q1904 -97 1904 -24L1904 480L1827 499L1827 540L2001 540ZM1890 701Q1890 730 1906 747Q1923 764 1952 764Q1981 764 1998 747Q2015 730 2015 701Q2015 672 1998 655Q1981 639 1952 639Q1923 639 1906 655Q1890 672 1890 701ZM2122 117Q2122 156 2139 186Q2157 216 2195 239Q2233 263 2293 280Q2353 297 2437 310Q2432 369 2425 402Q2419 435 2408 455Q2394 481 2369 493Q2344 506 2315 506Q2287 506 2264 496Q2242 486 2234 469Q2248 458 2254 442Q2261 427 2261 413Q2261 388 2244 373Q2228 359 2204 359Q2180 359 2164 375Q2149 391 2149 420Q2149 451 2166 475Q2183 500 2210 516Q2238 533 2272 541Q2307 550 2341 550Q2426 550 2475 501Q2537 439 2537 281L2537 136Q2537 86 2543 67Q2550 49 2572 49L2617 49L2617 19Q2545 -10 2505 -10Q2490 -10 2480 -5Q2470 0 2464 12Q2458 25 2455 46Q2453 67 2453 99L2449 99Q2418 48 2367 19Q2316 -10 2257 -10Q2194 -10 2158 23Q2122 57 2122 117ZM2299 48Q2327 48 2357 62Q2388 77 2409 103Q2440 141 2440 215Q2440 232 2439 248Q2438 265 2436 280Q2375 268 2334 255Q2294 242 2269 225Q2245 209 2235 187Q2225 166 2225 138Q2225 95 2244 71Q2264 48 2299 48ZM2734 60L2734 480L2657 499L2657 540L2801 540L2823 440L2827 440Q2856 491 2904 520Q2953 550 3008 550Q3050 550 3081 534Q3113 519 3128 496Q3144 471 3154 430Q3186 487 3237 518Q3288 550 3346 550Q3386 550 3418 534Q3450 519 3467 492Q3476 478 3482 458Q3488 438 3492 408Q3496 379 3497 339Q3499 299 3499 245L3499 60L3576 41L3576 0L3335 0L3335 41L3402 60L3402 283Q3402 347 3398 379Q3395 412 3386 430Q3361 479 3302 479Q3276 479 3252 469Q3229 459 3210 442Q3188 422 3177 395Q3167 369 3165 327L3165 60L3232 41L3232 0L3001 0L3001 41L3068 60L3068 283Q3068 347 3064 379Q3061 412 3052 430Q3027 479 2968 479Q2942 479 2918 469Q2895 459 2876 442Q2854 422 2843 395Q2833 369 2831 327L2831 60L2898 41L2898 0L2657 0L2657 41L2734 60ZM3709 480L3632 499L3632 540L3806 540L3806 60L3883 41L3883 0L3632 0L3632 41L3709 60L3709 480ZM3695 701Q3695 730 3711 747Q3728 764 3757 764Q3786 764 3803 747Q3820 730 3820 701Q3820 672 3803 655Q3786 639 3757 639Q3728 639 3711 655Q3695 672 3695 701ZM4021 60L4021 480L3944 499L3944 540L4088 540L4110 440L4114 440Q4144 491 4194 520Q4245 550 4304 550Q4344 550 4376 536Q4408 522 4427 496Q4447 468 4455 417Q4464 367 4464 281L4464 60L4541 41L4541 0L4300 0L4300 41L4367 60L4367 283Q4367 347 4363 379Q4360 412 4351 430Q4326 479 4263 479Q4235 479 4209 469Q4183 459 4163 442Q4141 422 4130 395Q4120 369 4118 327L4118 60L4185 41L4185 0L3944 0L3944 41L4021 60ZM5119 550Q5206 550 5257 507Q5309 465 5309 394Q5309 317 5247 317Q5218 317 5202 333Q5186 349 5186 376Q5186 401 5199 419Q5213 437 5236 444Q5207 499 5125 499Q5043 499 5005 446Q4968 393 4968 279Q4968 184 4994 134Q5034 57 5125 57Q5171 57 5213 77Q5255 97 5285 134L5315 110Q5275 48 5223 19Q5171 -10 5101 -10Q5031 -10 4979 18Q4928 47 4899 102Q4882 134 4872 175Q4863 217 4863 264Q4863 329 4881 381Q4899 434 4932 471Q4966 509 5013 529Q5061 550 5119 550ZM5690 482Q5681 488 5670 488Q5651 488 5630 464Q5609 441 5593 405Q5579 371 5571 330Q5563 290 5563 247L5563 60L5671 41L5671 0L5389 0L5389 41L5466 60L5466 480L5389 499L5389 540L5533 540L5555 408L5559 408Q5582 476 5620 513Q5659 550 5707 550Q5746 550 5772 525Q5798 501 5798 460Q5798 430 5782 412Q5767 395 5741 395Q5715 395 5700 411Q5685 428 5685 455Q5685 461 5686 466Q5687 471 5690 482ZM5849 117Q5849 156 5866 186Q5884 216 5922 239Q5960 263 6020 280Q6080 297 6164 310Q6159 369 6152 402Q6146 435 6135 455Q6121 481 6096 493Q6071 506 6042 506Q6014 506 5991 496Q5969 486 5961 469Q5975 458 5981 442Q5988 427 5988 413Q5988 388 5971 373Q5955 359 5931 359Q5907 359 5891 375Q5876 391 5876 420Q5876 451 5893 475Q5910 500 5937 516Q5965 533 5999 541Q6034 550 6068 550Q6153 550 6202 501Q6264 439 6264 281L6264 136Q6264 86 6270 67Q6277 49 6299 49L6344 49L6344 19Q6272 -10 6232 -10Q6217 -10 6207 -5Q6197 0 6191 12Q6185 25 6182 46Q6180 67 6180 99L6176 99Q6145 48 6094 19Q6043 -10 5984 -10Q5921 -10 5885 23Q5849 57 5849 117ZM6026 48Q6054 48 6084 62Q6115 77 6136 103Q6167 141 6167 215Q6167 232 6166 248Q6165 265 6163 280Q6102 268 6061 255Q6021 242 5996 225Q5972 209 5962 187Q5952 166 5952 138Q5952 95 5971 71Q5991 48 6026 48ZM6461 60L6461 480L6384 499L6384 540L6528 540L6550 440L6554 440Q6584 491 6634 520Q6685 550 6744 550Q6784 550 6816 536Q6848 522 6867 496Q6887 468 6895 417Q6904 367 6904 281L6904 60L6981 41L6981 0L6740 0L6740 41L6807 60L6807 283Q6807 347 6803 379Q6800 412 6791 430Q6766 479 6703 479Q6675 479 6649 469Q6623 459 6603 442Q6581 422 6570 395Q6560 369 6558 327L6558 60L6625 41L6625 0L6384 0L6384 41L6461 60ZM7171 480L7274 120L7286 61L7291 61L7303 120L7420 550L7492 550L7613 120L7625 61L7629 61L7641 120L7741 480L7676 499L7676 540L7866 540L7866 499L7812 480L7663 -10L7560 -10L7441 380L7325 -10L7222 -10L7069 480L7016 499L7016 540L7240 540L7240 499L7171 480ZM8377 264L8028 264Q8028 191 8048 143Q8068 96 8104 76Q8141 57 8185 57Q8233 57 8271 76Q8310 96 8341 130L8373 106Q8355 82 8334 61Q8314 40 8288 24Q8262 8 8230 -1Q8198 -10 8159 -10Q8090 -10 8037 19Q7984 49 7956 106Q7941 137 7934 174Q7927 212 7927 256Q7927 397 7991 473Q8055 550 8167 550Q8270 550 8325 486Q8380 423 8380 311Q8380 301 8379 292Q8379 284 8377 264ZM8161 496Q8041 496 8029 313L8279 313L8279 346Q8279 418 8248 457Q8218 496 8161 496ZM8529 60L8529 720L8452 739L8452 780L8626 780L8626 60L8703 41L8703 0L8452 0L8452 41L8529 60ZM8837 60L8837 720L8760 739L8760 780L8934 780L8934 60L9011 41L9011 0L8760 0L8760 41L8837 60Z" fill="#ffffff" style=""></path></g></g><g transform="matrix(2,0,0,2,3203.5845,-1126.4)"><g transform="matrix(1.024,0,0,-1.024,0,0)"><path d="M601 547Q601 518 591 492Q581 466 563 445Q545 425 520 411Q496 398 467 394L467 390Q545 373 590 323Q635 274 635 201Q635 144 605 97Q576 50 531 27Q517 20 500 15Q484 10 462 6Q440 3 412 1Q384 0 347 0L48 0L48 43L132 64L132 656L48 677L48 720L384 720Q489 720 546 669Q572 645 586 613Q601 581 601 547ZM360 347L232 347L232 60L342 60Q388 60 416 65Q444 70 463 81Q490 97 507 129Q524 161 524 206Q524 244 511 272Q498 301 478 318Q460 333 432 340Q404 347 360 347ZM232 662L232 405L357 405Q427 405 460 440Q475 456 486 480Q497 505 497 537Q497 568 486 592Q475 617 460 632Q430 662 361 662L232 662ZM1055 676Q960 676 913 614Q883 575 866 511Q849 448 849 372Q849 300 864 238Q879 177 906 135Q933 93 971 73Q1010 54 1068 54Q1157 54 1210 96Q1263 139 1277 223L1332 223Q1309 105 1242 47Q1175 -10 1058 -10Q920 -10 838 70Q789 118 763 190Q737 263 737 353Q737 454 770 535Q803 617 863 667Q939 730 1064 730Q1095 730 1119 726Q1144 723 1165 714Q1186 706 1204 692Q1223 678 1242 657L1262 720L1317 720L1317 499L1256 499Q1227 676 1055 676Z" fill="#ffffff" style=""></path></g></g></g></svg>